<?xml version="1.0" encoding="UTF-8"?>
<svg version="1.1" xmlns="http://www.w3.org/2000/svg" width="200" height="200">
<path d="M0 0 C4.70094629 3.41695648 9.39916459 6.89644578 13.6171875 10.90234375 C13.6171875 11.56234375 13.6171875 12.22234375 13.6171875 12.90234375 C14.2771875 12.90234375 14.9371875 12.90234375 15.6171875 12.90234375 C15.6171875 13.56234375 15.6171875 14.22234375 15.6171875 14.90234375 C16.6071875 15.23234375 17.5971875 15.56234375 18.6171875 15.90234375 C39.15719907 39.82697758 45.25696067 66.87622697 43.6171875 97.90234375 C42.96711189 103.80481889 41.49828314 109.28257052 39.6171875 114.90234375 C39.2046875 116.1553125 38.7921875 117.40828125 38.3671875 118.69921875 C29.3328159 144.26632522 10.61847673 163.47836821 -13.48046875 175.2734375 C-27.44028662 181.80609014 -41.4991851 184.25615715 -56.8203125 184.15234375 C-57.95791016 184.16007813 -59.09550781 184.1678125 -60.26757812 184.17578125 C-86.08565269 184.1168695 -109.54076383 173.35533563 -128.1328125 155.52734375 C-138.60985136 144.59724375 -146.66359678 131.44746518 -151.7578125 117.21484375 C-151.9964502 116.55081543 -152.23508789 115.88678711 -152.48095703 115.20263672 C-160.77138577 90.65505486 -158.22853308 62.74495406 -147.234375 39.55859375 C-135.56743937 16.00482213 -115.22550669 -2.41767876 -90.3828125 -11.09765625 C-59.63674561 -20.63173002 -27.03542245 -18.11948526 0 0 Z " fill="#422892" transform="translate(156.3828125,16.09765625)"/>
<path d="M0 0 C2.80712891 1.25244141 2.80712891 1.25244141 5.7265625 2.8515625 C6.82661621 3.44799561 7.92666992 4.04442871 9.06005859 4.65893555 C10.24842364 5.31419743 11.43673603 5.96955483 12.625 6.625 C13.8688099 7.30274562 15.11312273 7.97956901 16.35791016 8.65551758 C18.94691135 10.0622599 21.5336989 11.47295789 24.11914062 12.88623047 C30.18203112 16.19506905 36.28133717 19.43582535 42.375 22.6875 C54.28537778 29.06047961 66.15493921 35.50651271 78 42 C78 42.66 78 43.32 78 44 C75.4453125 45.7265625 75.4453125 45.7265625 72.125 47.625 C71.03445312 48.25664063 69.94390625 48.88828125 68.8203125 49.5390625 C66 51 66 51 64 51 C64.11361602 53.79256219 64.2403589 56.58344118 64.375 59.375 C64.4059375 60.1690625 64.436875 60.963125 64.46875 61.78125 C64.51816421 66.36667375 64.51816421 66.36667375 67 70 C66.625 72.625 66.625 72.625 66 75 C63.125 75.625 63.125 75.625 60 76 C58 74 58 74 57.875 71.375 C57.91625 70.59125 57.9575 69.8075 58 69 C58.99 68.67 59.98 68.34 61 68 C61 63.38 61 58.76 61 54 C53.34708166 56.96171153 53.34708166 56.96171153 47 62 C45.76540066 65.44784449 45.83600991 68.83321011 46.08422852 72.45117188 C46.21484375 74.48828125 46.21484375 74.48828125 46 78 C43.76171875 79.8828125 43.76171875 79.8828125 41 81 C40.33742188 81.29003906 39.67484375 81.58007812 38.9921875 81.87890625 C24.42925147 86.58096124 8.81998535 86.19695703 -6.3125 86.25 C-7.08100281 86.25526703 -7.84950562 86.26053406 -8.64129639 86.26596069 C-44.23444195 86.45428171 -44.23444195 86.45428171 -54 78 C-54.37859559 75.05906948 -54.47775614 72.72355042 -54.3125 69.8125 C-54.28994141 69.06291016 -54.26738281 68.31332031 -54.24414062 67.54101562 C-54.18529157 65.6931553 -54.09560938 63.84632333 -54 62 C-54.68860107 61.74621582 -55.37720215 61.49243164 -56.08666992 61.23095703 C-59.41230143 59.82579202 -62.49503484 58.11005708 -65.61328125 56.3046875 C-66.22769577 55.95238068 -66.84211029 55.60007385 -67.47514343 55.23709106 C-69.42269509 54.1194353 -71.36761959 52.99729638 -73.3125 51.875 C-74.63850046 51.11298289 -75.96467062 50.351261 -77.29101562 49.58984375 C-80.5293146 47.72997479 -83.76527423 45.8660782 -87 44 C-87 43.34 -87 42.68 -87 42 C-86.23671387 41.60844727 -85.47342773 41.21689453 -84.68701172 40.81347656 C-71.04568708 33.80775355 -57.43610746 26.76822322 -44.00317383 19.36816406 C-36.28802777 15.12766886 -28.49398029 11.04738993 -20.67236328 7.00708008 C-19.77114746 6.54068115 -18.86993164 6.07428223 -17.94140625 5.59375 C-16.66160889 4.93632813 -16.66160889 4.93632813 -15.35595703 4.265625 C-13.23693308 3.12728094 -11.24004263 1.8881042 -9.21484375 0.59375 C-5.35518029 -1.31966761 -4.10715407 -1.01193975 0 0 Z " fill="#FBFBFD" transform="translate(104,50)"/>
<path d="M0 0 C0.89996201 -0.0033284 1.79992401 -0.0066568 2.72715759 -0.01008606 C4.6204274 -0.01511305 6.51370594 -0.01749571 8.40698242 -0.01733398 C11.24608663 -0.01950732 14.08479303 -0.03767267 16.92382812 -0.05664062 C45.92878774 -0.15055898 45.92878774 -0.15055898 57.21484375 5.16796875 C57.21484375 5.82796875 57.21484375 6.48796875 57.21484375 7.16796875 C55.34726585 7.83496086 53.47006233 8.47498973 51.58984375 9.10546875 C50.54570312 9.46511719 49.5015625 9.82476562 48.42578125 10.1953125 C37.37061107 13.19474427 25.10748916 12.37135315 13.71484375 12.35546875 C12.97793304 12.35519684 12.24102234 12.35492493 11.48178101 12.35464478 C2.13901535 12.33886372 -7.15846568 12.15844421 -16.47265625 11.35546875 C-17.33117187 11.28545654 -18.1896875 11.21544434 -19.07421875 11.14331055 C-24.17840939 10.6247223 -28.17203335 9.42203817 -32.78515625 7.16796875 C-32.45515625 6.17796875 -32.12515625 5.18796875 -31.78515625 4.16796875 C-29.4140625 3.25390625 -29.4140625 3.25390625 -26.34765625 2.54296875 C-24.86458984 2.18332031 -24.86458984 2.18332031 -23.3515625 1.81640625 C-15.60131435 0.40727022 -7.86460968 0.01047345 0 0 Z " fill="#432E99" transform="translate(87.78515625,119.83203125)"/>
<path d="M0 0 C1.18359375 1.5 1.18359375 1.5 1.18359375 4.5 C0.62800781 4.21898438 0.07242188 3.93796875 -0.5 3.6484375 C-24.02357225 -8.01417674 -53.46767384 -11.03610964 -78.81640625 -3.5 C-83.83058626 -1.76107562 -88.75053317 -0.0530677 -93.01953125 3.15625 C-94.81640625 4.5 -94.81640625 4.5 -96.81640625 4.5 C-96.43338295 1.96657447 -96.05281011 0.73582727 -94.21484375 -1.09765625 C-70.79675266 -18.05090752 -22.89079328 -18.90336478 0 0 Z " fill="#4F3496" transform="translate(147.81640625,97.5)"/>
<path d="M0 0 C2.64 0 5.28 0 8 0 C8 6.27 8 12.54 8 19 C5.36 19.66 2.72 20.32 0 21 C-0.33 21.99 -0.66 22.98 -1 24 C-1.33 24 -1.66 24 -2 24 C-2.29599372 15.7943963 -1.43794854 8.07562173 0 0 Z " fill="#F1EEF5" transform="translate(163,127)"/>
<path d="M0 0 C0.66 0.33 1.32 0.66 2 1 C0.7260411 3.03833424 -0.61061923 5.03852126 -2 7 C-2.66 7 -3.32 7 -4 7 C-3.43628586 3.73045798 -2.50037734 2.17424117 0 0 Z " fill="#4F48B0" transform="translate(55,95)"/>
</svg>
