<?xml version="1.0" encoding="UTF-8"?>
<svg version="1.1" xmlns="http://www.w3.org/2000/svg" width="512" height="512">
<path d="M0 0 C1.46351143 0.5212999 1.46351143 0.5212999 2.95658875 1.0531311 C6.17988523 2.20452874 9.39643215 3.37369158 12.61328125 4.54296875 C14.89688514 5.36256126 17.18091034 6.18098072 19.46533203 6.99829102 C24.23674233 8.70773965 29.00542076 10.42451237 33.77197266 12.14746094 C40.58246691 14.60873562 47.39949629 17.05139732 54.21875 19.48828125 C64.13263902 23.03273473 74.04292001 26.58711604 83.95123291 30.14712524 C94.94883211 34.09847737 105.94832327 38.04454169 116.94857788 41.98849487 C119.13856504 42.77368197 121.32852687 43.55893975 123.51846313 44.3442688 C138.59118596 49.74926777 153.66866482 55.14080771 168.75 60.52172852 C173.52163421 62.22441232 178.2924553 63.92934301 183.0625 65.63647461 C185.35544992 66.45692113 187.64841837 67.27731583 189.94140625 68.09765625 C191.60423645 68.69257622 191.60423645 68.69257622 193.30065918 69.29951477 C199.40637833 71.48136218 205.51769968 73.64600663 211.63734436 75.78848267 C215.05996202 76.98790087 218.47932238 78.1964186 221.89816284 79.40655518 C223.43794647 79.94868528 224.97936018 80.48621123 226.52249146 81.01873779 C228.59478218 81.73404949 230.66103367 82.46465488 232.7265625 83.19921875 C233.86262939 83.59560547 234.99869629 83.99199219 236.16918945 84.40039062 C239.11660377 85.82254218 240.30116505 86.92671809 241.92578125 89.73046875 C242.359375 91.73046875 242.359375 91.73046875 242.36328125 93.73046875 C242.38261719 94.39046875 242.40195312 95.05046875 242.421875 95.73046875 C241.70485002 98.62115214 240.1385375 99.77824711 237.92578125 101.73046875 C235.6754303 102.84291077 235.6754303 102.84291077 233.17211914 103.71899414 C232.2201918 104.0585463 231.26826447 104.39809845 230.28749084 104.74794006 C229.25160324 105.10440109 228.21571564 105.46086212 227.1484375 105.828125 C226.05603256 106.21443588 224.96362762 106.60074677 223.83811951 106.99876404 C220.22509406 108.27395602 216.606727 109.53324858 212.98828125 110.79296875 C210.44569106 111.68618895 207.90442766 112.58315052 205.36328125 113.48046875 C201.4367734 114.86616247 197.50990776 116.25079389 193.58108521 117.62991333 C181.9212544 121.72291101 170.28715698 125.88592897 158.65899658 130.0680542 C153.19315594 132.0331484 147.72547814 133.99311554 142.2578125 135.953125 C141.1664801 136.34439575 140.07514771 136.7356665 138.95074463 137.13879395 C119.33966364 144.16827657 99.7175431 151.16692291 80.09716797 158.17041016 C68.98481648 162.13710633 57.87326377 166.10603929 46.7616272 170.07473755 C43.32441426 171.30238255 39.88718667 172.52998651 36.44995117 173.75756836 C34.82877632 174.3370649 34.82877632 174.3370649 33.17485046 174.92826843 C31.03485912 175.69186362 28.89401009 176.45305975 26.75227356 177.21174622 C21.58435072 179.04581592 16.43026911 180.90656487 11.30147171 182.847826 C9.39327546 183.56855262 7.48229189 184.28133184 5.57025146 184.99179077 C3.1532043 185.89243222 0.74152487 186.80766267 -1.66351318 187.73989868 C-13.66829413 192.17570188 -21.00247003 189.73163372 -32.7578125 185.453125 C-33.98479355 185.01535233 -35.2117746 184.57757965 -36.47593689 184.12654114 C-39.8001423 182.94024987 -43.11990771 181.74197177 -46.43895721 180.54134369 C-49.93868492 179.2777596 -53.44246975 178.02552355 -56.94580078 176.77197266 C-64.01565464 174.24014924 -71.08088238 171.69562986 -78.14483643 169.1473999 C-83.86822665 167.0829319 -89.59443012 165.02629321 -95.3203125 162.96875 C-101.3840416 160.78875837 -107.44708634 158.60689646 -113.50830078 156.41992188 C-128.95654592 150.84601547 -144.41877897 145.31197017 -159.88671875 139.79296875 C-178.76641635 133.05603479 -197.64221023 126.30839406 -216.51171875 119.54296875 C-218.11099716 118.96967331 -218.11099716 118.96967331 -219.74258423 118.38479614 C-220.77797333 118.01361664 -221.81336243 117.64243713 -222.88012695 117.26000977 C-223.89977036 116.89459579 -224.91941376 116.52918182 -225.96995544 116.1526947 C-227.97553201 115.43295414 -229.98055944 114.71168133 -231.98500061 113.98878479 C-237.31897464 112.06654746 -242.66183574 110.17557155 -248.02001953 108.32177734 C-249.16350357 107.92173996 -250.30698761 107.52170258 -251.48512268 107.10954285 C-253.68154466 106.34153264 -255.88108317 105.58235942 -258.08409119 104.83345032 C-259.07220291 104.48582138 -260.06031464 104.13819244 -261.07836914 103.7800293 C-261.94845108 103.48001511 -262.81853302 103.18000092 -263.71498108 102.87089539 C-266.44938873 101.54911617 -268.10025196 100.02387044 -270.07421875 97.73046875 C-270.5703125 95.73046875 -270.5703125 95.73046875 -270.51171875 93.73046875 C-270.51042969 93.07046875 -270.50914062 92.41046875 -270.5078125 91.73046875 C-269.92748719 89.05365293 -268.90822752 87.76920408 -267.07421875 85.73046875 C-264.60194397 84.50172424 -264.60194397 84.50172424 -261.61352539 83.46313477 C-260.48724228 83.06442673 -259.36095917 82.66571869 -258.20054626 82.25492859 C-256.97420975 81.8356459 -255.74787323 81.41636322 -254.484375 80.984375 C-253.197345 80.53383979 -251.91073644 80.08209908 -250.62452698 79.62922668 C-247.89011563 78.66911353 -245.15308533 77.71706295 -242.41363525 76.77142334 C-238.10828993 75.28515083 -233.80925184 73.78122625 -229.51123047 72.27392578 C-225.23866994 70.77639625 -220.96580922 69.27977749 -216.69067383 67.78961182 C-206.66840663 64.29618548 -196.67228145 60.73692445 -186.69921875 57.10546875 C-183.94061042 56.10406926 -181.1813685 55.10442624 -178.421875 54.10546875 C-177.71221588 53.84852737 -177.00255676 53.591586 -176.27139282 53.32685852 C-164.90601402 49.21733036 -153.51936703 45.16684392 -142.13671875 41.10546875 C-125.54761911 35.18609988 -108.96044527 29.2615437 -92.38134766 23.31420898 C-87.96381991 21.72953956 -83.54550651 20.147093 -79.12646484 18.56665039 C-69.65284577 15.17694844 -60.18305005 11.77882489 -50.7354126 8.31724548 C-46.82995554 6.88733692 -42.92124107 5.46646718 -39.012146 4.04653931 C-37.20317985 3.38648725 -35.39586887 2.72187805 -33.59039307 2.05233765 C-31.12419355 1.13795627 -28.65278588 0.23927106 -26.1796875 -0.65625 C-25.47074844 -0.9239621 -24.76180939 -1.19167419 -24.03138733 -1.46749878 C-15.16781928 -4.63290211 -8.58385964 -3.15882065 0 0 Z " fill="#F67E33" transform="translate(270.07421875,114.26953125)"/>
<path d="M0 0 C4.84961344 1.02284642 9.60250065 2.06169806 14.27368164 3.74560547 C15.21543747 4.08202057 16.1571933 4.41843567 17.12748718 4.76504517 C18.12826797 5.12875214 19.12904877 5.49245911 20.16015625 5.8671875 C21.23936844 6.25450043 22.31858063 6.64181335 23.43049622 7.04086304 C25.76055914 7.87780025 28.08975103 8.71716564 30.41815186 9.55871582 C34.10808231 10.89146365 37.80093958 12.21579439 41.49462891 13.53808594 C52.64966096 17.53408034 63.79625408 21.55236368 74.92374325 25.62448311 C80.67787483 27.73013013 86.4369036 29.82208402 92.19723511 31.91070557 C94.63572839 32.79870699 97.07206718 33.69264875 99.50613403 34.5927124 C102.91307453 35.85229763 106.32664214 37.09209946 109.7421875 38.328125 C110.73781204 38.70214447 111.73343658 39.07616394 112.75923157 39.46151733 C123.21729505 43.19946793 130.96756648 42.56521252 141.26953125 38.73046875 C142.73144897 38.20821716 142.73144897 38.20821716 144.22290039 37.67541504 C147.42497425 36.52755169 150.61851311 35.35765663 153.8125 34.1875 C156.05830108 33.37782264 158.3046494 32.56966175 160.55151367 31.76293945 C165.27304566 30.06504556 169.99122485 28.35826198 174.70703125 26.64453125 C182.01542362 23.99050319 189.33444903 21.36677511 196.65625 18.75 C204.67990942 15.88153269 212.70285894 13.01119259 220.72172546 10.12934875 C222.75934618 9.397168 224.79719006 8.66560795 226.83528137 7.93473816 C231.06305612 6.41829838 235.288875 4.89765094 239.50537109 3.35009766 C240.16300949 3.11031693 240.82064789 2.87053619 241.49821472 2.62348938 C243.16500235 2.01514233 244.83003369 1.40198881 246.49487305 0.78833008 C249 0 249 0 252 0 C252.11586 13.19542953 252.20469872 26.39073802 252.25906086 39.58657265 C252.2851523 45.71398513 252.32054321 51.84104955 252.37719727 57.96826172 C252.43153149 63.88159988 252.46142394 69.79460331 252.47438622 75.70817184 C252.48362342 77.96404668 252.50166162 80.21990323 252.52865028 82.47563553 C252.56495812 85.63601492 252.56994445 88.79501194 252.56762695 91.95556641 C252.58560333 92.88777008 252.60357971 93.81997375 252.62210083 94.78042603 C252.58756783 99.1338608 252.41334117 102.06448658 249.61296082 105.52011108 C223.20397368 130.58415112 162.86631117 124.39591322 128.98021698 124.31785583 C126.52735745 124.31242215 124.07450754 124.31005043 121.62164307 124.3079834 C98.31807197 124.27736962 75.14187105 124.04947904 52 121 C50.83678223 120.85014648 49.67356445 120.70029297 48.47509766 120.54589844 C13.53825259 115.85311246 13.53825259 115.85311246 1.41508484 104.51812744 C-0.81222066 100.55466253 -0.3918948 96.65222506 -0.34057617 92.18261719 C-0.34101425 91.18716888 -0.34145233 90.19172058 -0.34190369 89.16610718 C-0.33981385 85.87616353 -0.31647311 82.58672962 -0.29296875 79.296875 C-0.2873735 77.01572956 -0.28310307 74.73458051 -0.28010559 72.45343018 C-0.26865127 66.4495244 -0.23917879 60.44583635 -0.20599365 54.4420166 C-0.17530557 48.31554103 -0.16160294 42.18903028 -0.14648438 36.0625 C-0.11430986 24.04157101 -0.06310621 12.02080361 0 0 Z " fill="#FAA02D" transform="translate(130,277)"/>
<path d="M0 0 C-0.01633987 1.10372955 -0.03267975 2.20745911 -0.04951477 3.34463501 C-0.19624892 13.84524393 -0.27225517 24.34441099 -0.28240681 34.84606361 C-0.28980566 40.24295926 -0.32046022 45.6374529 -0.40795898 51.03369141 C-1.81713949 82.43875176 -1.81713949 82.43875176 11.20239258 109.97412109 C14.09010177 113.62732509 14.78748651 116.27608585 14.42036438 120.90988159 C13.77938278 124.09694382 12.53384171 126.48933964 10.82421875 129.2421875 C10.16099609 130.32757813 9.49777344 131.41296875 8.81445312 132.53125 C8.11255859 133.6346875 7.41066406 134.738125 6.6875 135.875 C5.9884968 137.0119544 5.29121628 138.14996978 4.59570312 139.2890625 C-1.18157094 148.62201151 -1.18157094 148.62201151 -4 151 C-6.12109375 151.46875 -6.12109375 151.46875 -8.4375 151.5 C-9.19933594 151.5309375 -9.96117187 151.561875 -10.74609375 151.59375 C-16.88568561 149.97638785 -20.60674083 140.32892201 -23.6875 135.1875 C-24.28111328 134.22779297 -24.87472656 133.26808594 -25.48632812 132.27929688 C-31.37040404 122.45013928 -31.37040404 122.45013928 -31 116 C-29.58785338 112.33427985 -27.70524798 109.0504133 -25.6875 105.6875 C-25.17509766 104.79482422 -24.66269531 103.90214844 -24.13476562 102.98242188 C-22.17529465 99.58719772 -20.1748577 96.26228655 -18 93 C-17.78663775 90.19298282 -17.68871095 87.48188479 -17.68115234 84.6730957 C-17.67110672 83.82409698 -17.6610611 82.97509827 -17.65071106 82.10037231 C-17.61980308 79.29218223 -17.60282281 76.4840878 -17.5859375 73.67578125 C-17.56723197 71.72949903 -17.54765903 69.78322497 -17.5272522 67.83695984 C-17.47585998 62.71272588 -17.43627221 57.58846561 -17.39910889 52.46411133 C-17.35911366 47.23577324 -17.3080009 42.00754529 -17.2578125 36.77929688 C-17.16096927 26.51960853 -17.07659137 16.25985811 -17 6 C-15.06305322 5.18618205 -13.12542289 4.37399084 -11.1875 3.5625 C-10.10855469 3.11003906 -9.02960938 2.65757812 -7.91796875 2.19140625 C-2.55081967 0 -2.55081967 0 0 0 Z " fill="#F46D35" transform="translate(459,249)"/>
</svg>
