<?xml version="1.0" encoding="UTF-8"?>
<svg version="1.1" xmlns="http://www.w3.org/2000/svg" width="310" height="80">
<path d="M0 0 C9.26757533 6.54788354 15.4297784 14.90868335 18 26 C19.31375472 38.36973059 18.2333239 49.44713519 10.8125 59.75 C3.97825245 67.86113456 -4.27389975 73.97585889 -15.03857422 75.23925781 C-28.09446733 76.27310204 -39.23550642 74.41231955 -49.5 65.6875 C-53.44784808 61.81643341 -56.59597391 57.98395653 -59 53 C-59.31710938 52.38382813 -59.63421875 51.76765625 -59.9609375 51.1328125 C-63.82680594 42.01787498 -63.48019932 29.23609403 -60.4375 19.9375 C-58.12312808 14.62422362 -54.90456479 10.25422731 -51 6 C-50.48824219 5.43410156 -49.97648437 4.86820313 -49.44921875 4.28515625 C-36.73749835 -8.11113685 -14.8190181 -8.53639266 0 0 Z " fill="#442991" transform="translate(62,5)"/>
<path d="M0 0 C5.82572064 0.33027708 10.30706921 3.0118513 15.3125 5.75 C16.11623047 6.18054688 16.91996094 6.61109375 17.74804688 7.0546875 C23.19529284 9.9820892 28.6008186 12.98507249 34 16 C34 16.66 34 17.32 34 18 C32.02 18.99 32.02 18.99 30 20 C30 22.97 30 25.94 30 29 C29.01 29 28.02 29 27 29 C27.33 26.36 27.66 23.72 28 21 C25.4251788 22.00916823 25.4251788 22.00916823 23 24 C22.63239269 26.32817964 22.29758419 28.6618385 22 31 C17.28932467 34.83832805 9.60163587 34.19335681 3.8125 34.1875 C3.06871094 34.18741943 2.32492188 34.18733887 1.55859375 34.18725586 C-13.97228496 34.02771504 -13.97228496 34.02771504 -17 31 C-17.04092937 28.66702567 -17.04241723 26.33294775 -17 24 C-17.86625 23.7525 -18.7325 23.505 -19.625 23.25 C-23.18302254 21.93221387 -25.9226155 20.19813178 -29 18 C-27.63318239 13.89954718 -25.84504032 13.6025009 -22.03125 11.6796875 C-21.43574341 11.37555939 -20.84023682 11.07143127 -20.22668457 10.75808716 C-18.32235328 9.78773898 -16.41155883 8.8310195 -14.5 7.875 C-12.58991179 6.90916037 -10.68123563 5.94060412 -8.77331543 4.9704895 C-7.04336131 4.09255212 -5.30984139 3.22165179 -3.57617188 2.35107422 C-1.13408704 1.23335208 -1.13408704 1.23335208 0 0 Z " fill="#F6F5FA" transform="translate(37,20)"/>
<path d="M0 0 C0.3125 3 0.3125 3 0 6 C-0.66 6.66 -1.32 7.32 -2 8 C-4.005155 7.69922675 -6.00398694 7.3564309 -8 7 C-15.10654246 6.25076835 -15.10654246 6.25076835 -21.5 8.9375 C-24.68199888 12.83544863 -25.73443104 16.00559017 -26 21 C-25.385441 25.16534435 -24.63540205 27.27115648 -21.875 30.4375 C-18.20171066 32.4338529 -15.04871929 32.8351975 -11 32 C-8.97048465 30.71203834 -6.96498322 29.38442 -5 28 C-2.625 28.25 -2.625 28.25 -1 29 C-1.3000175 32.50020422 -1.95733741 33.94904191 -4.25 36.6875 C-9.19163514 40.84296592 -13.24205692 41.41667421 -19.5703125 41.23828125 C-23.85698955 40.81788366 -26.51025895 39.57667554 -29.47265625 36.44140625 C-33.77855835 30.67221708 -33.81880149 24.96441271 -33 18 C-31.73664424 10.87825115 -28.37611544 5.79126606 -23 1 C-16.61282086 -3.08779465 -6.44731896 -4.29821264 0 0 Z " fill="#4D4D4D" transform="translate(128,22)"/>
<path d="M0 0 C0.92039063 0.29197266 0.92039063 0.29197266 1.859375 0.58984375 C4.34198159 8.19282642 4.04445831 15.69295568 3.859375 23.58984375 C4.601875 22.78804687 5.344375 21.98625 6.109375 21.16015625 C9.2582634 18.21701908 10.76575662 17.57607964 14.91796875 17.35546875 C16.859375 17.58984375 16.859375 17.58984375 19.921875 19.21484375 C22.60425284 23.8873729 21.72303143 27.33066327 20.86328125 32.53125 C20.53598116 35.71250315 20.53598116 35.71250315 22.82421875 37.9921875 C23.49582031 38.51941406 24.16742188 39.04664063 24.859375 39.58984375 C22.984375 44.46484375 22.984375 44.46484375 21.859375 45.58984375 C19.07456344 45.88298181 17.4632227 45.99959754 15.109375 44.40234375 C12.42287659 40.50692105 12.80548388 36.30906189 13.296875 31.77734375 C13.39871094 30.80152344 13.50054687 29.82570313 13.60546875 28.8203125 C13.68925781 28.08425781 13.77304688 27.34820312 13.859375 26.58984375 C10.19991915 27.00087109 10.19991915 27.00087109 7.34765625 29.15625 C4.52640422 33.9458174 3.0731721 38.1744413 1.859375 43.58984375 C-0.140625 45.58984375 -0.140625 45.58984375 -2.765625 45.71484375 C-3.549375 45.67359375 -4.333125 45.63234375 -5.140625 45.58984375 C-5.0684375 44.97882812 -4.99625 44.3678125 -4.921875 43.73828125 C-4.20046484 36.6243755 -4.00102009 29.54948824 -3.953125 22.40234375 C-3.94023437 21.47663574 -3.92734375 20.55092773 -3.9140625 19.59716797 C-3.90554109 13.62472717 -4.64559369 8.37496491 -6.140625 2.58984375 C-2.66754808 -0.51111779 -2.66754808 -0.51111779 0 0 Z " fill="#4D4D4D" transform="translate(224.140625,17.41015625)"/>
<path d="M0 0 C2.0625 1.375 2.0625 1.375 2.9375 4.375 C3.0625 7.375 3.0625 7.375 2.0625 9.375 C1.4025 9.375 0.7425 9.375 0.0625 9.375 C0.0625 12.675 0.0625 15.975 0.0625 19.375 C1.3825 19.705 2.7025 20.035 4.0625 20.375 C4.1875 22.75 4.1875 22.75 4.0625 25.375 C2.0625 27.375 2.0625 27.375 -0.875 27.75 C-3.9375 27.375 -3.9375 27.375 -5.8125 25.375 C-6.18375 24.715 -6.555 24.055 -6.9375 23.375 C-7.7625 24.035 -8.5875 24.695 -9.4375 25.375 C-13.38056658 28.00059647 -16.2739493 27.90152992 -20.9375 27.375 C-24.17363354 25.63246655 -24.76145315 24.90314056 -25.9375 21.375 C-26.4770737 15.00803036 -25.56500351 10.69218755 -21.9375 5.375 C-15.75152937 -0.81097063 -8.31509079 -1.76916825 0 0 Z M-17.4375 9.125 C-18.93404897 11.36982346 -19.76965083 12.68941336 -19.9375 15.375 C-19.07959817 17.59271064 -19.07959817 17.59271064 -17.9375 19.375 C-14.60549815 19.79271804 -14.60549815 19.79271804 -10.9375 19.375 C-6.92737875 15.89252628 -6.3431129 12.54656444 -5.9375 7.375 C-12.02768606 6.78885736 -12.02768606 6.78885736 -17.4375 9.125 Z " fill="#4D4D4D" transform="translate(184.9375,35.625)"/>
<path d="M0 0 C3 1.5625 3 1.5625 5 4 C5.69990157 8.27717625 5.50342498 10.2280817 3.125 13.875 C0.77347149 16.22652851 -0.08312209 16.96242304 -3.3828125 17.09765625 C-4.28773438 17.08605469 -5.19265625 17.07445313 -6.125 17.0625 C-7.03507812 17.05347656 -7.94515625 17.04445313 -8.8828125 17.03515625 C-9.93082031 17.01775391 -9.93082031 17.01775391 -11 17 C-11 17.99 -11 18.98 -11 20 C-4.72429909 20.22274044 -4.72429909 20.22274044 1 18 C3.25 18.375 3.25 18.375 5 19 C4.66032174 22.17033042 4.00130809 22.99882607 1.5625 25.1875 C-3.18561565 28.54592327 -7.2737296 28.67526774 -13 28 C-15.93423195 26.20353146 -17.47205355 25.0558929 -19 22 C-19.55713132 16.04298055 -19.52180186 11.04791601 -16 6 C-11.04066176 1.13323607 -7.04364 -0.9427434 0 0 Z M-10.25 9 C-10.8275 9.66 -11.405 10.32 -12 11 C-10.88898816 12.33648017 -10.88898816 12.33648017 -8.0625 12.125 C-5.08454272 12.21325664 -5.08454272 12.21325664 -3 11 C-3.33 9.68 -3.66 8.36 -4 7 C-8.00346023 6.55709077 -8.00346023 6.55709077 -10.25 9 Z " fill="#4C4C4C" transform="translate(271,35)"/>
<path d="M0 0 C3.33615058 2.19697721 4.37407179 3.9627761 5.375 7.8125 C5.68185888 14.15425024 4.12649491 18.85648157 0 23.6875 C-4.02768341 26.99226588 -6.85537723 27.03806481 -11.953125 26.95703125 C-14.4375 26.6875 -14.4375 26.6875 -17.5 25.1875 C-20.12350117 21.80233721 -20.48951957 18.90975539 -20.4375 14.6875 C-19.9375 12.25 -19.9375 12.25 -19.4375 10.6875 C-19.7675 10.3575 -20.0975 10.0275 -20.4375 9.6875 C-20.8125 6.875 -20.8125 6.875 -20.4375 3.6875 C-14.66220907 -2.08779093 -7.46207609 -2.84915632 0 0 Z M-11.4375 6.6875 C-13.91416082 10.40249122 -13.98636514 12.29657888 -13.4375 16.6875 C-11.42007918 18.94801003 -11.42007918 18.94801003 -8.4375 19.6875 C-5.22433477 19.19987739 -5.22433477 19.19987739 -2.4375 17.6875 C-0.11711905 14.86181454 -0.11711905 14.86181454 -0.625 11.625 C-1.17504498 8.39009047 -1.17504498 8.39009047 -4.4375 6.6875 C-7.97949641 6.27076793 -7.97949641 6.27076793 -11.4375 6.6875 Z " fill="#4C4C4C" transform="translate(150.4375,36.3125)"/>
<path d="M0 0 C2.5625 1.5 2.5625 1.5 4 3 C3.125 7.875 3.125 7.875 2 9 C-0.02408755 8.90997602 -2.04544287 8.75358962 -4.0625 8.5625 C-5.16722656 8.46066406 -6.27195312 8.35882813 -7.41015625 8.25390625 C-8.26480469 8.17011719 -9.11945313 8.08632813 -10 8 C-6.65053586 9.7387106 -3.25434152 11.04621908 0.29296875 12.31640625 C2 13 2 13 3 14 C3.71194379 21.11943794 3.71194379 21.11943794 0.625 24.9375 C-2.83790833 27.65835655 -4.54173573 28.17284989 -8.875 28.25 C-9.73867188 28.27578125 -10.60234375 28.3015625 -11.4921875 28.328125 C-14.59227659 27.92250587 -15.89964875 27.32503999 -18 25 C-18 23.02 -18 21.04 -18 19 C-13.05 19.33 -8.1 19.66 -3 20 C-3 19.34 -3 18.68 -3 18 C-4.8253125 17.814375 -4.8253125 17.814375 -6.6875 17.625 C-10.06222086 17.20016812 -12.94479645 16.57389274 -16 15 C-17.45147903 12.09704195 -17.37239025 10.22738221 -17 7 C-12.86771178 0.09157992 -7.53343108 -0.81589506 0 0 Z " fill="#4C4C4C" transform="translate(298,35)"/>
<path d="M0 0 C0.625 2.3125 0.625 2.3125 1 5 C0.01 6.485 0.01 6.485 -1 8 C-1.75925781 7.89300781 -2.51851562 7.78601562 -3.30078125 7.67578125 C-4.79158203 7.49595703 -4.79158203 7.49595703 -6.3125 7.3125 C-7.79169922 7.12107422 -7.79169922 7.12107422 -9.30078125 6.92578125 C-11.99950705 6.75583817 -11.99950705 6.75583817 -13.8359375 8.2578125 C-15.73840855 11.10513494 -15.30098464 13.68916892 -15 17 C-13.14404149 19.28274811 -13.14404149 19.28274811 -10.25 19.25 C-6.86974405 18.98998031 -4.15756096 18.20288037 -1 17 C0 20 0 20 -1.1875 22.5625 C-3.11410285 25.15344866 -4.06301979 25.83461461 -7 27 C-11.87349688 27.68149713 -15.78196848 27.7208758 -20.0625 25.1875 C-23.0615839 21.80143753 -23.35954488 18.639083 -23.26953125 14.1875 C-22.68022666 9.40473809 -20.79575382 5.64081046 -17.234375 2.38671875 C-11.58422365 -1.56171379 -6.62589846 -2.20863282 0 0 Z " fill="#4C4C4C" transform="translate(215,36)"/>
<path d="M0 0 C1.19496094 -0.00128906 2.38992187 -0.00257812 3.62109375 -0.00390625 C4.87019531 -0.00003906 6.11929688 0.00382812 7.40625 0.0078125 C8.65535156 0.00394531 9.90445313 0.00007813 11.19140625 -0.00390625 C12.98384766 -0.00197266 12.98384766 -0.00197266 14.8125 0 C16.45702148 0.00169189 16.45702148 0.00169189 18.13476562 0.00341797 C20.90625 0.1328125 20.90625 0.1328125 23.90625 1.1328125 C23.90625 1.7928125 23.90625 2.4528125 23.90625 3.1328125 C20.69103721 4.08606417 17.78877632 4.26166194 14.44140625 4.265625 C13.39404297 4.26691406 12.34667969 4.26820312 11.26757812 4.26953125 C10.17896484 4.26566406 9.09035156 4.26179688 7.96875 4.2578125 C6.34163086 4.26361328 6.34163086 4.26361328 4.68164062 4.26953125 C3.63298828 4.26824219 2.58433594 4.26695313 1.50390625 4.265625 C0.55008057 4.26449707 -0.40374512 4.26336914 -1.38647461 4.26220703 C-4.05166692 4.13482387 -6.49625148 3.72681296 -9.09375 3.1328125 C-9.09375 2.4728125 -9.09375 1.8128125 -9.09375 1.1328125 C-5.83427722 0.04632157 -3.42864025 0.00352741 0 0 Z " fill="#452D96" transform="translate(32.09375,47.8671875)"/>
<path d="M0 0 C0.66 0.33 1.32 0.66 2 1 C1.67 1.66 1.34 2.32 1 3 C-0.69962891 2.26716797 -0.69962891 2.26716797 -2.43359375 1.51953125 C-7.05631775 -0.20928409 -11.16913312 -0.41626096 -16.0625 -0.3125 C-16.82626953 -0.31572266 -17.59003906 -0.31894531 -18.37695312 -0.32226562 C-24.76657991 -0.26214082 -30.35069411 0.8363887 -36 4 C-35 1 -35 1 -32.75 -0.625 C-23.60828936 -5.19585532 -9.02820239 -4.60622571 0 0 Z " fill="#6650A5" transform="translate(56,37)"/>
<path d="M0 0 C0.99 0 1.98 0 3 0 C3 2.31 3 4.62 3 7 C2.01 7 1.02 7 0 7 C0 4.69 0 2.38 0 0 Z " fill="#FCFBFD" transform="translate(64,51)"/>
</svg>
